<svg xmlns="http://www.w3.org/2000/svg" viewBox="0 0 68 29.67"><path d="M64.4,29.67H3.6A3.61,3.61,0,0,1,0,26.07V3.6A3.61,3.61,0,0,1,3.6,0H64.4A3.61,3.61,0,0,1,68,3.6V26.07A3.61,3.61,0,0,1,64.4,29.67ZM8.54,22.25H19.91V19.33h-6.7l2.5-1.93c2.73-2.11,4.05-3.38,4.05-5.95v0c0-2.87-2.11-4.74-5.3-4.74-2.74,0-4.21,1.12-5.73,3.18l2.37,1.91c1.15-1.4,2-2.06,3.14-2.06a1.89,1.89,0,0,1,2.07,2c0,1.27-.75,2.11-2.66,3.69L8.54,19.57Zm21,0h3.22V18.94h2.07V16.19H32.77V6.77H29.92l-8.43,9.77.55,2.4h7.51Zm-4.09-6.06,4.09-4.79v4.79Zm9.42,8.87h2.83L47.44,4.73H44.6Zm13.87-2.81h3.82l6.9-12.82V6.88H48.4V9.8h7.23Z"></path></svg>
