<svg xmlns="http://www.w3.org/2000/svg" viewBox="0 0 104.88 80.12"><path d="M83.36,79.57h-3.5V35a1.77,1.77,0,0,1,.93-1.55c.21-.11,5.26-2.7,12.36,2.67,4.86,3.67,8.37.52,8.76.15a1.75,1.75,0,0,1,3,1.24V50.87a1.74,1.74,0,0,1-.51,1.24c-2,2-7.4,4.64-13.33.16-3.63-2.74-6.33-2.84-7.68-2.62ZM78.13,0H1.75a1.75,1.75,0,0,0,0,3.5A3.73,3.73,0,0,1,5.47,7.23v3A1.76,1.76,0,0,0,7.22,12h4.21V78.37a1.76,1.76,0,0,0,1.75,1.75h0L31.82,80a1.76,1.76,0,0,0,1.74-1.75V59.16a6.33,6.33,0,0,1,12.66,0V78.24A1.76,1.76,0,0,0,48,80l18.35.13h0a1.76,1.76,0,0,0,1.75-1.75V12h4.59a1.75,1.75,0,0,0,1.75-1.75v-3A3.73,3.73,0,0,1,78.13,3.5a1.75,1.75,0,0,0,0-3.5ZM35,42.31H24.82V32.1H35ZM35.25,22H25.05V11.84h10.2ZM55.66,42.31H45.46V32.1h10.2ZM55.89,22H45.69V11.84h10.2Z"></path></svg>
