<svg xmlns="http://www.w3.org/2000/svg" viewBox="0 0 41.33 55.11"><path d="M40.55,24.42l-6.14-6.15A10,10,0,0,0,33.34,1,9.94,9.94,0,0,0,20,5.57a10,10,0,0,0,3.24,12.52L9.62,31.73a2.67,2.67,0,0,0,0,3.76l3.23,3.23L0,51.57l.17,1.6L2,55l1.49.07L16.38,42.25l3.17,3.17a2.66,2.66,0,0,0,3.76,0L40.55,28.18A2.66,2.66,0,0,0,40.55,24.42ZM22.28,6.67A7.4,7.4,0,0,1,29,2.5a7.3,7.3,0,0,1,3.26.77,7.42,7.42,0,0,1,.34,13.17l-1.94-2a2.66,2.66,0,0,0-3.76,0l-1.8,1.8A7.46,7.46,0,0,1,22.28,6.67Zm8.41,16.1a2.73,2.73,0,0,1-4.33-3.24,9.66,9.66,0,0,0,4.84.1A2.74,2.74,0,0,1,30.69,22.77Z" fill="#231f20"></path></svg>
