<svg xmlns="http://www.w3.org/2000/svg" viewBox="0 0 500 500"><path d="M494.9,97c-.07-56.8-39-95.45-95.77-95.47Q250,1.44,100.86,1.5C44.09,1.52,5.22,40.22,5.07,97c-.11,44.74,0,89.48,0,134.22,0,58-.15,116,.07,174,.13,35.29,15.42,62.46,45.56,80.9C68.3,496.85,87.91,499,108.15,498.4c16.28-.46,16.3-.11,16.3-15.94V298.52c0-63,.2-125.94-.21-188.9-.07-9.43,3-11.58,11.85-11.51,48.38.36,96.77,0,145.15.28a198.24,198.24,0,0,1,32.61,3c90.76,15.83,136.41,114.4,89.54,193.62-22.31,37.73-57.94,56.08-99.62,61.47-28.43,3.67-57.49,2.69-86.28,3-8.76.1-12.09,2-12,11.55q.81,57.66,0,115.33c-.14,9.7,2.79,12.2,12.29,12.14,60.64-.41,121.29-.17,181.94-.22,56-.05,95.05-38.91,95.13-95.12Q495.11,250.09,494.9,97Z" fill="#d51c1d"></path><path d="M218.37,289.34c21.52-.3,43.1.6,64.58-.47,22.53-1.12,42.31-9.05,53.58-30.36,20.23-38.27-2.32-80.48-46.2-84.58-24-2.24-48.3-.9-72.47-1.38-5.9-.11-7.23,2.81-7.18,8,.15,16.89.06,33.79.06,50.68h0c0,16.57.16,33.13-.08,49.69C210.61,286.55,212,289.43,218.37,289.34Z" fill="#d51c1d"></path></svg>
