<svg xmlns="http://www.w3.org/2000/svg" viewBox="0 0 46 46"><path d="M24.51,26.25H18.58V15.87h5.77c3.73,0,6.07,1.8,6.07,5.15v.1c0,2.91-2.19,5.15-5.92,5.15ZM44.58,8.66v28.5a8.14,8.14,0,0,1-8.13,8.13H18.58V32.91h5.69C31.89,32.91,38,28.83,38,21v-.09C38,13.94,33.1,9.11,25,9.11H11.15V45.29H8.64A8.14,8.14,0,0,1,.51,37.16V8.66A8.16,8.16,0,0,1,8.64.52H36.5a8.16,8.16,0,0,1,8.13,8.14Zm8.58-1.21h6c3.47,0,5.61,2.07,5.61,5.06,0,3.38-2.64,5.14-5.92,5.14H56.38V22H53.16Zm5.77,7.38a2.28,2.28,0,0,0,1.75-.55,2.32,2.32,0,0,0,.8-1.66c0-1.45-1-2.22-2.62-2.22H56.38v4.48Zm8.22-7.37h6.68A5.85,5.85,0,0,1,78.1,8.93a4.59,4.59,0,0,1,1.26,3.35,4.62,4.62,0,0,1-3.14,4.54L79.8,22H76L72.9,17.36H70.36V22H67.15Zm6.48,7.09c1.57,0,2.47-.83,2.47-2.06s-1-2.09-2.53-2.09H70.36v4.2Zm8.66-7.1h11v2.87H85.49v3h6.9v2.87h-6.9v3.07h8v2.87H82.29Zm14,0H99.8l3.84,6.19,3.85-6.19H111V22.09h-3.19V12.53l-4.12,6.25h-.08l-4.08-6.19v9.5H96.32Zm18.33,0h3.22V22.08h-3.22Zm6.67,8.36V7.45h3.21v8.28c0,2.38,1.16,3.61,3.17,3.61s3.15-1.15,3.15-3.46V7.49h3.22v8.26c0,4.43-2.49,6.62-6.42,6.62s-6.33-2.21-6.33-6.51Zm16.06-8.36h3.47l3.85,6.19,3.85-6.19H152V22.09h-3.2V12.53l-4.11,6.25h-.09l-4.07-6.19v9.5h-3.16Zm-84.22,18h6c3.47,0,5.61,2.07,5.61,5.06,0,3.38-2.64,5.13-5.92,5.13H56.38V40H53.16Zm5.77,7.38a2.33,2.33,0,0,0,2.55-2.22c0-1.44-1-2.21-2.62-2.21H56.38v4.47Zm12.25-7.5h3L80.42,40H77.05l-1.33-3.29H69.53L68.19,40H64.92Zm3.39,8.62-1.95-4.75-1.94,4.75Zm8.62-8.5h6.68a5.81,5.81,0,0,1,4.27,1.48,4.62,4.62,0,0,1,1.26,3.35,4.6,4.6,0,0,1-3.14,4.53L95.84,40H92.08l-3.14-4.69H86.41V40H83.19Zm6.48,7.1c1.56,0,2.46-.83,2.46-2.07s-.95-2.08-2.52-2.08h-3.2v4.2Zm9.15-7.12H102v6.4L108,25.4h3.88l-5.95,6.21L112.13,40h-3.86l-4.54-6.23L102,35.57V40H98.82Zm15.91,0H118V40h-3.22Zm7.38,0h3l6.85,9v-9h3.18V40h-2.74l-7.08-9.3V40h-3.19Zm16.37,7.36a7.51,7.51,0,0,1,7.68-7.57,8,8,0,0,1,5.77,2l-2,2.45a5.3,5.3,0,0,0-3.82-1.49,4.39,4.39,0,0,0-4.2,4.61,4.38,4.38,0,0,0,4.43,4.62,5.17,5.17,0,0,0,3-.88v-2.1h-3.26V31.64h6.35V38a9.47,9.47,0,0,1-6.25,2.31,7.34,7.34,0,0,1-7.7-7.53Z" fill="#fff"></path></svg>
