<svg xmlns="http://www.w3.org/2000/svg" viewBox="0 0 58.75 62.2"><path d="M49.66,7.29h-4V2.21a2.21,2.21,0,0,0-4.42,0V7.29H17.53V2.21a2.22,2.22,0,0,0-4.43,0V7.29h-4A9.1,9.1,0,0,0,0,16.38V53.11A9.1,9.1,0,0,0,9.09,62.2H42.5l.24-.24,16-16.2,0,0V16.38A9.1,9.1,0,0,0,49.66,7.29ZM42.74,55.94V51.8a6,6,0,0,1,6-6h4Zm6-14.41A10.27,10.27,0,0,0,38.51,51.8V58H17.92V48.46h3.65c5.51,0,10-2.93,10-8.58,0-5.12-3.69-8.41-9.52-8.41H13.52V58H9.09a4.87,4.87,0,0,1-4.86-4.86v-28H54.52V41.53Zm-30.86,3v-9h3.79C25,35.48,27.12,37,27.12,40c0,2.68-2.08,4.5-5.41,4.5Z"></path></svg>
