<svg xmlns="http://www.w3.org/2000/svg" viewBox="0 0 42.44 42.45"><path d="M31.37,0A11.12,11.12,0,0,0,20.12,11.21c0,.11,0,.21,0,.31H4.3A4.31,4.31,0,0,0,0,15.83V38.15a4.31,4.31,0,0,0,4.3,4.3H26.79a4.31,4.31,0,0,0,4.3-4.3V22.3h.18A11.16,11.16,0,0,0,31.37,0ZM28.65,32.16v6A1.85,1.85,0,0,1,26.79,40H12.39V33h2.77c4.19,0,7.61-2.22,7.61-6.52,0-3.88-2.8-6.38-7.23-6.38H9.05V40H4.3a1.86,1.86,0,0,1-1.86-1.85V15.75A1.87,1.87,0,0,1,4.3,13.89H20.47A11.16,11.16,0,0,0,28.65,22ZM12.39,30V23.16h2.88c2.5,0,4.11,1.17,4.11,3.42,0,2-1.58,3.43-4.11,3.43ZM31,15.21l-1.4,1.41-1-1-1.72-1.72-2.39-2.39c-.12-.11-.24-.23-.35-.35L26.34,9q1.57,1.59,3.26,3.26l6.59-6.61,2.19,2.19C36,10.29,33.49,12.76,31,15.21Z" ></path></svg>
