<svg xmlns="http://www.w3.org/2000/svg" viewBox="0 0 47.98 47.98"><title>icon-sign-in</title>
    <path d="M38.29,0H9.7A9.71,9.71,0,0,0,0,9.7V38.29A9.71,9.71,0,0,0,9.7,48H38.29A9.7,9.7,0,0,0,48,38.29V9.7A9.71,9.71,0,0,0,38.29,0ZM3,9.7A6.7,6.7,0,0,1,9.7,3H38.29A6.7,6.7,0,0,1,45,9.7V38.29A6.71,6.71,0,0,1,44,41.7a22.35,22.35,0,0,0-14.56-12,10.25,10.25,0,1,0-11.44,0A22.73,22.73,0,0,0,3.69,41.22,6.58,6.58,0,0,1,3,38.29ZM23.75,28.43A7.25,7.25,0,1,1,31,21.18,7.26,7.26,0,0,1,23.75,28.43ZM9.7,45a6.58,6.58,0,0,1-3.88-1.25,19.65,19.65,0,0,1,17.92-11.8A19.42,19.42,0,0,1,41.78,44a6.6,6.6,0,0,1-3.49,1Z" />
</svg>
