<svg xmlns="http://www.w3.org/2000/svg" viewBox="0 0 299.43 145.81"><path d="M294.72,81.83c-1.91-1.45-2.23-1.67-13.74-5.46,10-2.45,10.4-2.72,12.17-3.88A13.35,13.35,0,0,0,299,60.4l0-.53C298.13,52,288,37.27,281.26,34a13.39,13.39,0,0,0-13.38.79c-1.85,1.23-2.1,1.39-9.68,11.74-.74-12.09-2.16-33.42-2.51-35.41l-.07-.46-.12-.44A13.38,13.38,0,0,0,245.67.75c-8.13-2-29.61,4-35.37,10a13.43,13.43,0,0,0-3.52,12.75l.24.88.39.83c.56,1.13,2,3.54,14.48,23.11l4.59,7.24c-11.16-4.57-11.6-4.58-13.91-4.6a13.13,13.13,0,0,0-11.47,6.32l0,.07a23.8,23.8,0,0,0-2.75,8.35c-3.59-4.84-9-8.73-17.22-10.34A28.08,28.08,0,0,0,164.68,57a16.17,16.17,0,0,0-16.6-.27,13.57,13.57,0,0,0-3.9,3.29V53.33l-.52-3.95-.16-.71A14.46,14.46,0,0,0,134.86,39l0,0a16.3,16.3,0,0,0-14.59,1.25c-4.81,2.84-7.28,7.56-7.28,14V67.79a26.84,26.84,0,0,0-6.34-6.88c-6.76-5.13-15.82-6.86-26.2-5a28.18,28.18,0,0,0-15,7.52l-.19-.4a14.9,14.9,0,0,0-9.52-7.22c-7-1.93-15.94.46-19.62,13,0,0-.59,2-1.41,4.8-1.61-3-5.79-11-6-11.27a15,15,0,0,0-18-5.49A15.5,15.5,0,0,0,.36,71.79,20.21,20.21,0,0,0,1.5,78.37l.19.55,17.25,35.14c-6.22,1.64-10.65,6.28-11.37,12.64a16,16,0,0,0-.11,1.82,14.54,14.54,0,0,0,4.76,10.75c4.68,4.32,12,5.75,20.49,4C42,141.45,47.32,135.86,51.06,124l5.69-17.87a32.18,32.18,0,0,0,8.41,15.59c4.6,4.55,13,9.58,27,7.7,10.35-1.45,17.52-6.09,21.39-11.53l.25,1.31a14.77,14.77,0,0,0,8.13,9.18,15.83,15.83,0,0,0,13.37-.09,14.14,14.14,0,0,0,5.59-4.42v5.64c0,9.31,5.39,13.27,8.6,14.81a16.14,16.14,0,0,0,13.59.38,14.72,14.72,0,0,0,8.39-9.33l.19-.63.56-3.84v-1.65a29.59,29.59,0,0,0,16.59-3,27.91,27.91,0,0,0,6-4.25h3.78a14.46,14.46,0,0,0,13.83,0h11c7.27,4.09,17.89,7.19,23.58,6.22a13.3,13.3,0,0,0,10.38-8.44l.08-.22c.69-2,.81-2.39.86-13.74,6.22,10.06,6.55,10.32,8.3,11.7a13.24,13.24,0,0,0,13.26,1.74c7.32-2.94,18.51-17.17,19.64-25a15.71,15.71,0,0,0,.15-2A13.18,13.18,0,0,0,294.72,81.83ZM181.06,55.32h.07Zm98.81,63.93h0s0,0,0,0l.05,0" transform="translate(-0.28 -0.28)" fill="none"></path><path d="M294.72,81.83c-1.91-1.45-2.23-1.67-13.74-5.46,10-2.45,10.4-2.72,12.17-3.88A13.35,13.35,0,0,0,299,60.4l0-.53C298.13,52,288,37.27,281.26,34a13.39,13.39,0,0,0-13.38.79c-1.85,1.23-2.1,1.39-9.68,11.74-.74-12.09-2.16-33.42-2.51-35.41l-.07-.46-.12-.44A13.38,13.38,0,0,0,245.67.75c-8.13-2-29.61,4-35.37,10a13.43,13.43,0,0,0-3.52,12.75l.24.88.39.83c.56,1.13,2,3.54,14.48,23.11l4.59,7.24c-11.16-4.57-11.6-4.58-13.91-4.6a13.13,13.13,0,0,0-11.47,6.32l0,.07a23.8,23.8,0,0,0-2.75,8.35c-3.59-4.84-9-8.73-17.22-10.34A28.08,28.08,0,0,0,164.68,57a16.17,16.17,0,0,0-16.6-.27,13.57,13.57,0,0,0-3.9,3.29V53.33l-.52-3.95-.16-.71A14.46,14.46,0,0,0,134.86,39l0,0a16.3,16.3,0,0,0-14.59,1.25c-4.81,2.84-7.28,7.56-7.28,14V67.79a26.84,26.84,0,0,0-6.34-6.88c-6.76-5.13-15.82-6.86-26.2-5a28.18,28.18,0,0,0-15,7.52l-.19-.4a14.9,14.9,0,0,0-9.52-7.22c-7-1.93-15.94.46-19.62,13,0,0-.59,2-1.41,4.8-1.61-3-5.79-11-6-11.27a15,15,0,0,0-18-5.49A15.5,15.5,0,0,0,.36,71.79,20.21,20.21,0,0,0,1.5,78.37l.19.55,17.25,35.14c-6.22,1.64-10.65,6.28-11.37,12.64a16,16,0,0,0-.11,1.82,14.54,14.54,0,0,0,4.76,10.75c4.68,4.32,12,5.75,20.49,4C42,141.45,47.32,135.86,51.06,124l5.69-17.87a32.18,32.18,0,0,0,8.41,15.59c4.6,4.55,13,9.58,27,7.7,10.35-1.45,17.52-6.09,21.39-11.53l.25,1.31a14.77,14.77,0,0,0,8.13,9.18,15.83,15.83,0,0,0,13.37-.09,14.14,14.14,0,0,0,5.59-4.42v5.64c0,9.31,5.39,13.27,8.6,14.81a16.14,16.14,0,0,0,13.59.38,14.72,14.72,0,0,0,8.39-9.33l.19-.63.56-3.84v-1.65a29.59,29.59,0,0,0,16.59-3,27.91,27.91,0,0,0,6-4.25h3.78a14.46,14.46,0,0,0,13.83,0h11c7.27,4.09,17.89,7.19,23.58,6.22a13.3,13.3,0,0,0,10.38-8.44l.08-.22c.69-2,.81-2.39.86-13.74,6.22,10.06,6.55,10.32,8.3,11.7a13.24,13.24,0,0,0,13.26,1.74c7.32-2.94,18.51-17.17,19.64-25a15.71,15.71,0,0,0,.15-2A13.18,13.18,0,0,0,294.72,81.83Z" transform="translate(-0.28 -0.28)" fill="none" stroke="#bdbcbc" stroke-linecap="round" stroke-linejoin="round" stroke-width="0.14"></path><path d="M181.06,55.32h.07Z" transform="translate(-0.28 -0.28)" fill="none" stroke="#bdbcbc" stroke-linecap="round" stroke-linejoin="round" stroke-width="0.14"></path><path d="M279.87,119.25h0l0,0Z" transform="translate(-0.28 -0.28)" fill="none" stroke="#bdbcbc" stroke-linecap="round" stroke-linejoin="round" stroke-width="0.14"></path><path d="M207.59,66.06c-1.78,2.85-2.52,11.79-1.9,17.74a13.64,13.64,0,0,0,1.08,4.56A3.83,3.83,0,0,0,210,90.57c.86.05,1.4-.1,17.8-5.38l7.32-2.33a4.44,4.44,0,0,0,3.16-4.27,4.74,4.74,0,0,0-2.88-4.82l-5.14-2.1c-17.62-7.27-18.41-7.54-19.3-7.55a3.79,3.79,0,0,0-3.41,1.94M247,120.21c.29-.83.32-1.4.36-18.62,0,0,0-7.61.06-7.69a4.43,4.43,0,0,0-3.07-4.32,4.73,4.73,0,0,0-5.47,1.23s-3.58,4.25-3.6,4.26c-12.34,14.51-12.86,15.17-13.15,16a3.41,3.41,0,0,0-.2,1.58,4.19,4.19,0,0,0,1,2.23c2.86,3.41,16.59,8.46,21,7.71a3.88,3.88,0,0,0,3.11-2.41m27.83-6c4.15-1.65,13.18-13.14,13.81-17.55A3.86,3.86,0,0,0,287.32,93c-.69-.53-1.24-.73-17.61-6.11,0,0-7.19-2.37-7.27-2.41A4.45,4.45,0,0,0,257.37,86a4.71,4.71,0,0,0-.48,5.61l2.89,4.7c9.73,15.8,10.46,16.92,11.16,17.47a3.79,3.79,0,0,0,3.89.41m-8.45-40.67C285,69,285.71,68.8,286.45,68.32A3.82,3.82,0,0,0,288,64.73a.75.75,0,0,0,0-.15c-.48-4.57-8.48-16.47-12.43-18.4a3.89,3.89,0,0,0-3.95.15c-.72.48-1.26,1.17-11.22,14.82,0,0-4.51,6.14-4.56,6.19a4.41,4.41,0,0,0,0,5.29,4.7,4.7,0,0,0,5.1,2.22,1.28,1.28,0,0,0-.1.15,56.11,56.11,0,0,1,5.55-1.46m-18.7-15.37c-.32-7.38-2.54-40.23-2.8-41.75a3.92,3.92,0,0,0-3-2.76c-4.74-1.18-22.91,3.92-26.28,7.39a4,4,0,0,0-1.16,3.75c.53,1.08,23,36.5,23,36.5,3.33,5.39,6,4.55,6.93,4.28s3.59-1.12,3.28-7.41" transform="translate(-0.28 -0.28)" fill="#e9e9e9"></path><path d="M209.08,62.33c-1.77,2.85-2.52,11.8-1.91,17.74a14,14,0,0,0,1.09,4.57,3.84,3.84,0,0,0,3.26,2.2c.87,0,1.42-.1,17.81-5.37l7.32-2.34a4.42,4.42,0,0,0,3.15-4.27A4.72,4.72,0,0,0,236.93,70L231.78,68c-17.61-7.27-18.4-7.55-19.29-7.56a3.81,3.81,0,0,0-3.41,1.94m39.41,54.14c.28-.83.32-1.39.37-18.61,0,0,0-7.61,0-7.69a4.41,4.41,0,0,0-3.06-4.32,4.73,4.73,0,0,0-5.46,1.23s-3.6,4.26-3.61,4.26c-12.34,14.5-12.85,15.17-13.15,16a3.39,3.39,0,0,0-.2,1.58,4.18,4.18,0,0,0,1,2.24c2.86,3.4,16.59,8.44,21,7.7a3.86,3.86,0,0,0,3.1-2.42m27.84-6c4.14-1.65,13.16-13.14,13.8-17.55a3.85,3.85,0,0,0-1.32-3.71c-.7-.53-1.22-.73-17.61-6.11,0,0-7.18-2.37-7.28-2.42a4.46,4.46,0,0,0-5.06,1.6,4.72,4.72,0,0,0-.49,5.61l2.9,4.71c9.72,15.79,10.46,16.91,11.16,17.45a3.79,3.79,0,0,0,3.9.42m-8.47-40.66c18.62-4.52,19.34-4.75,20.08-5.23A3.83,3.83,0,0,0,289.53,61a.85.85,0,0,0,0-.16c-.48-4.57-8.49-16.46-12.43-18.39a3.86,3.86,0,0,0-4,.15c-.72.47-1.25,1.18-11.22,14.81,0,0-4.5,6.14-4.56,6.2a4.4,4.4,0,0,0,0,5.28,4.7,4.7,0,0,0,5.09,2.22l-.09.16c.92-.35,2.56-.75,5.54-1.46M249.17,54.44c-.32-7.38-2.54-40.23-2.8-41.76a3.91,3.91,0,0,0-3-2.75c-4.75-1.18-22.92,3.91-26.29,7.39a4,4,0,0,0-1.15,3.74c.53,1.09,23,36.51,23,36.51,3.32,5.39,6,4.55,6.93,4.27s3.58-1.11,3.27-7.4" transform="translate(-0.28 -0.28)" fill="#bf2519"></path><path d="M18.62,132.32c2.35,2.18,6.79,2.79,12.19,1.69,5.06-1,8.2-3.26,11.22-12.86l15-47.25c.77-2.51.72-4.68-.18-6.3A5.53,5.53,0,0,0,53.26,65c-2.68-.74-6-.66-8.13,6.54l-7.9,26.8L21.15,67.94a5.57,5.57,0,0,0-7-2.28c-4,1.5-5.27,5-3.69,9.63L30,115.19a14.12,14.12,0,0,1,.53,1.65s.18,1.08.18,1.11a5.14,5.14,0,0,1-1.47,3.69,4.85,4.85,0,0,1-3.62,1.23l-3.28-.07c-3.13.39-5.1,2.18-5.42,5a5.12,5.12,0,0,0,1.66,4.56m77-44.8H74.73c-.57-.41-.85-1.11-.42-3.2a10.76,10.76,0,0,1,1.39-3.46l.82-1.26a10.48,10.48,0,0,1,6-3.73c7.36-1.8,12.5,1.94,13.33,8.32C96.21,87,96,87.52,95.66,87.52Zm12.87-3.64c-.68-6.83-3.31-12.16-7.63-15.43-4.6-3.49-11.11-4.6-18.82-3.22-9.67,1.67-15.47,8.58-16.8,20-1.64,13.65.61,23.93,6.52,29.75,4.45,4.4,11,6.15,19,5.06,11.43-1.6,16.57-7.87,16.57-11.84,0-2.92-1.77-5.21-4.36-5.56-1.48-.3-2.73,0-5.5,2.48-4,3.48-8.62,4.87-12.72,3.83a9.47,9.47,0,0,1-6.66-5.89s-.49-2-.46-1.74c-.34-1.75-.49-3.5.59-4.21l.29-.19h25.1c2.31,0,3.48-.3,4.16-1,1.38-1.54,1.27-5.91.68-12m22.75-36.11a6.89,6.89,0,0,0-6.19.58c-1.9,1.12-2.68,2.82-2.68,5.9v59.83s.33,2.14.36,2.23a5.45,5.45,0,0,0,3.06,3.46,6.33,6.33,0,0,0,5.41,0,6,6,0,0,0,3.47-5.83V54s-.38-2.9-.38-3a5,5,0,0,0-3.05-3.22m47.35,60.77c-8.29,0-9.61-7.35-9.87-12.91,0,0-.11-3.25-.11-3.25s.09-2.4.09-2.49c.54-9.61,2.53-13.4,7.6-14.45,3.4-.79,6-.41,7.95,1.17,2.93,2.35,4.22,7.35,4.11,15.68C188.31,102.05,186.61,108.54,178.63,108.54Zm.61-43.93a18.46,18.46,0,0,0-14.86,2.91s-.52.42-.71.53l-.41.21-1.25.56-.36-1.4-.3-.51-.1-.31,0-.1-.35-.47c-1.31-2-4.87-3-8.08-1.14-1.57.89-2.47,2.14-2.47,5.89v58.73c0,3.21,1,5.21,3.21,6.27a6.81,6.81,0,0,0,5.76.23,5.32,5.32,0,0,0,3.07-3.29l.37-2.51V120l-.11-1.63,0-.48.07-.24.6-1.93,1.84,1.22a4.94,4.94,0,0,1,.66.51l.55.37.64.37.59.29c4.93,2.32,11.52,2,16.82-.68,6.68-3.49,10-9.68,10.75-20.07C196.76,77,192,67.09,179.24,64.61" transform="translate(-0.28 -0.28)" fill="#231f20"></path><path d="M205,113.14h.68c.56,0,1.08,0,1.08-.66s-.48-.62-.91-.62H205Zm-.57-1.78h1.47c1,0,1.41.35,1.41,1.15a1,1,0,0,1-1.06,1.08l1.16,1.77h-.61l-1.09-1.72H205v1.72h-.57Zm1.3,4.92a3,3,0,1,0-2.93-2.93A2.91,2.91,0,0,0,205.72,116.28Zm0-6.4a3.46,3.46,0,1,1-3.48,3.47,3.45,3.45,0,0,1,3.48-3.47" transform="translate(-0.28 -0.28)" fill="#231f20"></path></svg>
